<svg xmlns="http://www.w3.org/2000/svg" xmlns:xlink="http://www.w3.org/1999/xlink" width="20" height="20" viewBox="0 0 20 20"><defs><path id="a" d="M13.12 11.381a2.95 2.95 0 0 0-1.89.698L5.705 9a2.329 2.329 0 0 0 0-1.002L11.23 4.92a2.95 2.95 0 0 0 1.89.698c1.597 0 2.881-1.253 2.881-2.81C16 1.253 14.716 0 13.12 0c-1.597 0-2.881 1.253-2.881 2.81 0 .178.018.34.055.5L4.77 6.389a2.95 2.95 0 0 0-1.89-.697C1.284 5.69 0 6.943 0 8.5s1.284 2.81 2.88 2.81a2.95 2.95 0 0 0 1.89-.698l5.524 3.077c-.037.162-.055.34-.055.502 0 1.556 1.284 2.809 2.88 2.809C14.716 17 16 15.747 16 14.19c0-1.556-1.284-2.809-2.88-2.809z"/></defs><g fill="none" fill-rule="evenodd" transform="translate(2 2)"><mask id="b" fill="#fff"><use xlink:href="#a"/></mask><use fill="#000" fill-rule="nonzero" xlink:href="#a"/><g fill="#000" mask="url(#b)"><path d="M-32-32h79v79h-79z"/></g></g></svg>