<svg xmlns="http://www.w3.org/2000/svg" xmlns:xlink="http://www.w3.org/1999/xlink" width="32" height="32" viewBox="0 0 32 32"><defs><path id="a" d="M26.585 0H5.415C2.425 0 0 2.408 0 5.378v11.244C0 19.592 2.425 22 5.415 22h21.17C29.575 22 32 19.592 32 16.622V5.378C32 2.408 29.575 0 26.585 0zm-4.318 11.215l-9.6 4.889a.248.248 0 0 1-.24-.008.244.244 0 0 1-.12-.207V6.11a.248.248 0 0 1 .36-.215l9.6 4.889a.244.244 0 0 1 0 .435v-.005z"/></defs><g transform="translate(0 6)" fill="none" fill-rule="evenodd"><mask id="b" fill="#fff"><use xlink:href="#a"/></mask><use fill="#ffee1f" fill-rule="nonzero" xlink:href="#a"/><g fill="#ffee1f" mask="url(#b)"><path d="M-25-27h79v79h-79z"/></g></g></svg>