<svg xmlns="http://www.w3.org/2000/svg" width="128" height="48" viewBox="0 0 128 48"><path fill-rule="evenodd" d="M.223 31.73l7.037-7.04h-.922v-.013h-.024a776.395 776.395 0 0 0-6.105-.04L.184 24.6v-3.515c.007-.028.02-.039.038-.039l14.062-.081.025.042v3.685h-1.806l-5.385 5.325-.01-.01-.018.018c-.648.63-1.239 1.204-1.772 1.724l2.953.01c2.749.025 4.752.039 6.013.039l.025.039v3.535l-.025.039c-.116 0-.434.007-.96.025-1.021 0-5.396.028-13.115.08l-.025-.038V31.73h.039zm32.009-20.688l2.388 3.766h-3.999l-2.378-3.75-1.473.016v-.067c-.43-.007-.749-.01-.961-.01h-1.851c.018.486.028 2.473.028 2.681v.71c0 .067.004.169.014.3l-.042.028c-.87 0-2.067.004-3.636.01-.014-2.79-.026-6.383-.039-10.816h-.13l-.053-.028c.017-.49.024-.86.024-1.115V.497c.01-.077.032-.116.067-.116 7.826.053 12.285.078 13.38.078.505.01.848.014 1.021.014.018.025.028.05.028.064 0 .614-.01.92-.028.92.018.805.028 1.458.028 1.966v4.425c0 .674-.01 1.737-.028 3.187a.159.159 0 0 1-.05.014c-.474 0-1.244-.003-2.31-.007zm52.83 27.98l.032.098v8.38c0 .066-.032.098-.098.098-20.728-.13-32.62-.195-35.678-.195l-.065-.097v-7.992c0-.065.033-.097.098-.097 22.723-.13 34.627-.195 35.71-.195zM76.41 10.127h8.683c.087.022.13.054.13.097v14.652c0 2.663-.022 6.193-.065 10.59-.043 0-.065.01-.065.032a492.214 492.214 0 0 0-2.406-.032c-3.903 0-15.016-.065-33.337-.195l-.032-.13V21.854c0-.065.032-.097.097-.097h8.749c.065 0 .097.032.097.097v5.23c.26 0 .976-.021 2.147-.065.932 0 5.713-.021 14.343-.065a106.64 106.64 0 0 1 1.56-.032V10.224c0-.065.033-.097.099-.097zm14.408.43c.152 0 .532.022 1.138.065 1.258 0 13.14.173 35.646.52l.066.097v1.04c0 2.404-.076 7.937-.228 16.6-.065.043-.109.065-.13.065-1.28 0-4.098-.022-8.456-.065-.066-.152-.098-.368-.098-.65v-8.154c-.109 0-.434.022-.976.065-.954 0-5.355.033-13.204.098l22.929 18.322.423 8.283-.13.065c-4.857.174-9.421.26-13.693.26-3.36 0-11.101-.054-23.221-.162l-.066-.098v-.324h-.325l-.097-.033.357-16.892c.043 0 .065-.022.065-.065.434.043.694.065.781.065.953 0 3.545.021 7.773.065l.065.097v9.29h.033c4.64 0 9.486-.042 14.538-.13L90.722 20.336v-.032c0-2.188.01-5.415.032-9.681.043 0 .065-.022.065-.065zM1.325.13H14.86c.028 0 .046.074.053.222h.029l-.029.106v.723c0 2.788-.025 5.964-.078 9.532a6.661 6.661 0 0 0-.028.381h.237c.017 0 .039.021.067.064 0 .49-.021 1.827-.067 4.016l-.04.024L.04 14.885l-.014-.038c0-.597.028-2.14.077-4.63L0 .304.04.275h1.233V.17c.01-.024.028-.038.053-.038zm2.847 4.001v2.03c.1.011.15.015.16.015.272 0 2.437.049 6.497.144V4.132H4.172zm.106 4.747l-.106.025a67.97 67.97 0 0 0-.024 1.563v1.593l6.642.078v-1.12c.017-.484.028-.858.028-1.13V8.71l.01-.105c-4.182.183-6.365.275-6.55.275zM23.855 3.92c0 .882.057.967.17 3.521 1.31.018 2.3.026 2.977.026h4.523c-.094-2.912-.14-2.997-.14-3.52h-6.06c-.301 0-.791-.01-1.47-.027zM53.115 0c.432 0 .74.186.923.564h.223c.025.007.039.02.039.038V.68c0 .71.013 1.736.039 3.085-.026 0-.04.01-.04.038v3.801h.262c.028 0 .039.014.039.043 0 .54.021 1.795.067 3.761l-.039.015h-.395v.024l-.053 3.331-.04.029-3.229-.068c0-.007-.003-.013-.003-.013 0-.41.003-.714.003-.904v-2.375c-.095 0-.484.007-1.169.014-3.55.018-5.677.025-6.38.025v.603c0 .604.01 1.475.027 2.611-.035.026-.063.04-.077.04l-3.233.067-.01-.043c-.071-2.209-.107-5.403-.107-9.57v-1.55c0-.444.007-1.058.025-1.834-.018-.018-.025-.068-.025-.145a1.24 1.24 0 0 1 .107-.434 1.964 1.964 0 0 1-.03-.286V.932c0-.297.23-.498.683-.604h.053L53.115 0zm-9.779 3.49c0 .469-.013 1.788-.039 3.958l7.314-.197v-.025c0-.699-.014-1.958-.039-3.78-3.31.03-5.72.043-7.236.043zM19.68 21.03c.431.018.75.025.961.025h3.032l.038.028c-.007 2.71-.024 7.492-.053 14.345l-.039.015h-3.49c-.353 0-.527-.018-.527-.053.025-7.309.05-12.087.068-14.335.006 0 .01-.007.01-.025zm9.204-.067h4.54c.028 0 .042.014.042.043v10.989l9.804.049.029.053v3.23c0 .023-.015.038-.039.038-1.505 0-6.317.024-14.429.077l-.029-.039v-3.398l.043-.053V21.007c.007-.029.021-.043.039-.043z"/></svg>